<svg xmlns="http://www.w3.org/2000/svg" viewBox="0 0 512 512" width="512" height="512">
  <defs>
    <linearGradient id="bgGrad" x1="0" y1="0" x2="1" y2="1">
      <stop offset="0%" stop-color="#0f172a" />
      <stop offset="100%" stop-color="#1e293b" />
    </linearGradient>
    <linearGradient id="triad1" x1="0" y1="0" x2="1" y2="1">
      <stop offset="0%" stop-color="#10b981" />
      <stop offset="100%" stop-color="#059669" />
    </linearGradient>
    <linearGradient id="triad2" x1="0" y1="0" x2="1" y2="1">
      <stop offset="0%" stop-color="#06b6d4" />
      <stop offset="100%" stop-color="#0284c7" />
    </linearGradient>
    <linearGradient id="triad3" x1="0" y1="0" x2="1" y2="1">
      <stop offset="0%" stop-color="#6366f1" />
      <stop offset="100%" stop-color="#4f46e5" />
    </linearGradient>
    <filter id="glow" x="-20%" y="-20%" width="140%" height="140%">
      <feGaussianBlur stdDeviation="12" result="blur" />
      <feComposite in="SourceGraphic" in2="blur" operator="over" />
    </filter>
  </defs>
  <rect width="512" height="512" rx="128" fill="url(#bgGrad)" />
  <!-- Outer Orbit -->
  <circle cx="256" cy="256" r="180" fill="none" stroke="#334155" stroke-width="4" stroke-dasharray="8 8" />
  <circle cx="256" cy="256" r="180" fill="none" stroke="url(#triad1)" stroke-width="6" stroke-linecap="round" stroke-dasharray="140 1000" />

  <!-- Triad Nodes -->
  <!-- Top Node: Tasks (Action) -->
  <g transform="translate(256, 150)" filter="url(#glow)">
    <circle r="46" fill="url(#triad1)" />
    <path d="M-14 -2 L-4 8 L16 -12" fill="none" stroke="#ffffff" stroke-width="6" stroke-linecap="round" stroke-linejoin="round" />
  </g>

  <!-- Bottom Right Node: Habits (Loop/Cycle) -->
  <g transform="translate(348, 310)" filter="url(#glow)">
    <circle r="46" fill="url(#triad2)" />
    <path d="M-12 -6 A 15 15 0 1 1 12 6 M7 12 L13 6 L7 0" fill="none" stroke="#ffffff" stroke-width="5" stroke-linecap="round" stroke-linejoin="round" />
  </g>

  <!-- Bottom Left Node: Journal (Reflection/Book) -->
  <g transform="translate(164, 310)" filter="url(#glow)">
    <circle r="46" fill="url(#triad3)" />
    <path d="M-14 -12 L0 -6 L14 -12 L14 10 L0 16 L-14 10 Z M0 -6 L0 16" fill="none" stroke="#ffffff" stroke-width="5" stroke-linecap="round" stroke-linejoin="round" />
  </g>

  <!-- Center Core -->
  <circle cx="256" cy="256" r="22" fill="#fbbf24" filter="url(#glow)" />
  <circle cx="256" cy="256" r="10" fill="#ffffff" />
</svg>